<svg xmlns="http://www.w3.org/2000/svg" width="80" height="80" viewBox="0 0 80 80"><g transform="translate(2518 1374)"><rect width="80" height="80" transform="translate(-2518 -1374)" fill="none"/><g transform="translate(-2518 -1374)"><path d="M36,19.5v-5H26V7H21v7.5H16a5,5,0,0,0-5,5V27a5.005,5.005,0,0,0,5,5H31v7.5H11v5H21V52h5V44.5h5a5.006,5.006,0,0,0,5-5V32a5,5,0,0,0-5-5H16V19.5Z" transform="translate(16.5 10.5)" fill="#01d99b"/><path d="M37,7A30,30,0,1,1,7,37,30,30,0,0,1,37,7m0-5A35,35,0,1,0,72,37,35,35,0,0,0,37,2Z" transform="translate(3 3)" fill="#01d99b"/><rect width="80" height="80" fill="none"/></g></g></svg>