<svg xmlns="http://www.w3.org/2000/svg" width="178.902" height="63.999" viewBox="0 0 178.902 63.999">
  <g id="Group_14002" data-name="Group 14002" transform="translate(-1266.938 2809)">
    <g id="Group_10778" data-name="Group 10778" transform="translate(1266.938 -2809)">
      <g id="Group_10775" data-name="Group 10775" transform="translate(0)">
        <path id="Path_10097" data-name="Path 10097" d="M293.741,1490.3a19.622,19.622,0,0,0-23.846-8.97,2.206,2.206,0,0,0,1.5,4.148h0a7.857,7.857,0,0,1,4.028.3,5.321,5.321,0,0,1,2.879,1.867,5.257,5.257,0,0,1,.962,2.957,9.315,9.315,0,0,1-.408,3c-1.174,3.97-4.435,7.03-8.71,9.194a40.565,40.565,0,0,1-16.106,3.878.157.157,0,0,1-.163-.128A11.755,11.755,0,0,1,255,1498.68a14.922,14.922,0,0,1,8.667-6.908s0,0,0,0l.572-.181,2.9-.906a.157.157,0,0,0,.106-.108.155.155,0,0,0-.031-.145l-1.931-2.349a22.026,22.026,0,0,0-16.107-7.93,24.2,24.2,0,0,0-8.421,1.066,21.964,21.964,0,0,0-7.387,3.95,19.57,19.57,0,0,0-1.743,1.617c-.006,0-.01.011-.016.015a2.179,2.179,0,0,0-.354.355h0l-.174.226a.025.025,0,0,0-.006.009c-3.513,4.009-4.7,8.884-4.516,14.157.3,8.509,2.418,15.795,7.025,22.278,5,7.042,12.89,13.047,24.527,18.559a.01.01,0,0,1,.008,0l2.46.994a2.192,2.192,0,0,0,1.144.135.03.03,0,0,1,.016,0,2.181,2.181,0,0,0,.7-.153l2.116-.857.008,0c11.637-5.511,19.534-11.521,24.543-18.568a37.067,37.067,0,0,0,6.34-15.4C296.551,1502.23,296.718,1495.809,293.741,1490.3Zm-61.006,4.678a9.9,9.9,0,0,1,1.813-4.855s.006-.01.011-.012a15.025,15.025,0,0,1,1.612-1.538,17.54,17.54,0,0,1,5.9-3.139,19.871,19.871,0,0,1,6.9-.878,18.009,18.009,0,0,1,10.511,3.932.163.163,0,0,1,.058.144.154.154,0,0,1-.088.125,18.441,18.441,0,0,0-8.364,7.865,16.122,16.122,0,0,0-1.708,9.84.159.159,0,0,1-.167.18,32.434,32.434,0,0,1-9.508-1.837,11.1,11.1,0,0,1-6.046-4.7A8.957,8.957,0,0,1,232.736,1494.978Zm50.947,19.575c-6.774,6.4-15.942,10.761-21.146,11.55a2.211,2.211,0,1,0,.656,4.374c5.871-.888,16.094-5.7,23.515-12.709.458-.43.905-.871,1.34-1.318a.154.154,0,0,1,.206-.02.156.156,0,0,1,.052.2,31.948,31.948,0,0,1-2.794,4.742c-4.554,6.407-11.891,11.95-22.8,17.12a.041.041,0,0,0-.01.006l-1.16.467a.17.17,0,0,1-.12,0l-1.446-.587a.011.011,0,0,1-.008,0c-10.909-5.169-18.24-10.7-22.785-17.1a33.791,33.791,0,0,1-5.987-16.539.157.157,0,0,1,.094-.162.16.16,0,0,1,.183.04,17.249,17.249,0,0,0,6.662,4.313,39.966,39.966,0,0,0,13.779,2.208,46.032,46.032,0,0,0,20.22-4.389c5.31-2.684,9.4-6.628,10.958-11.892a13.677,13.677,0,0,0,.58-4.413c-.015-.36-.047-.717-.1-1.071a.159.159,0,0,1,.3-.085,13.937,13.937,0,0,1-1.435,14.052,29.346,29.346,0,0,1-8.244,7.914c-4.8,3.189-10.134,5.2-13.993,5.627a2.208,2.208,0,1,0,.466,4.392c4.491-.493,10.587-2.761,15.966-6.337a33.691,33.691,0,0,0,9.486-9.158,18.88,18.88,0,0,0,3.332-12.639c-.038-.355-.089-.712-.149-1.071a.158.158,0,0,1,.291-.109C294.508,1499.955,290.25,1508.351,283.683,1514.553Z" transform="translate(-226.544 -1480.119)" fill="#02f195"/>
        <path id="Path_10098" data-name="Path 10098" d="M298.046,1511.744a2.757,2.757,0,1,0-2.757-2.759A2.757,2.757,0,0,0,298.046,1511.744Z" transform="translate(-277.208 -1499.364)" fill="#02f195"/>
      </g>
      <g id="Group_10776" data-name="Group 10776" transform="translate(76.299 4.83)">
        <path id="Path_10099" data-name="Path 10099" d="M525.678,1529.088a11.57,11.57,0,0,1-3.393-.48,8.945,8.945,0,0,1-2.829-1.464,10.727,10.727,0,0,1-2.267-2.428l2.38-2.733a10.777,10.777,0,0,0,3.022,3.118,6.54,6.54,0,0,0,3.44.867,6.049,6.049,0,0,0,2.219-.387,3.84,3.84,0,0,0,1.575-1.06,2.307,2.307,0,0,0,.58-1.542,3.08,3.08,0,0,0-.193-1.094,2.747,2.747,0,0,0-.594-.935,4.493,4.493,0,0,0-1.029-.77,8.234,8.234,0,0,0-1.463-.629,14.552,14.552,0,0,0-1.93-.466,14.417,14.417,0,0,1-3.022-.931,7.106,7.106,0,0,1-2.154-1.449,5.547,5.547,0,0,1-1.287-1.975,7.062,7.062,0,0,1-.418-2.494,5.378,5.378,0,0,1,.6-2.5,6.216,6.216,0,0,1,1.64-2.012,7.572,7.572,0,0,1,2.46-1.318,9.737,9.737,0,0,1,3.054-.466,10.721,10.721,0,0,1,3.184.448,7.94,7.94,0,0,1,2.573,1.336,7.487,7.487,0,0,1,1.865,2.17l-2.444,2.411a7.83,7.83,0,0,0-1.447-1.783,5.936,5.936,0,0,0-6.013-1.077,3.425,3.425,0,0,0-1.463,1.077,2.583,2.583,0,0,0-.531,1.622,2.931,2.931,0,0,0,.258,1.238,2.767,2.767,0,0,0,.788,1,5.071,5.071,0,0,0,1.431.773,14.483,14.483,0,0,0,2.154.593,17.234,17.234,0,0,1,3.152.983,9.47,9.47,0,0,1,2.347,1.4,5.586,5.586,0,0,1,1.462,1.8,4.737,4.737,0,0,1,.5,2.154,6.819,6.819,0,0,1-1,3.728,6.457,6.457,0,0,1-2.83,2.428A10.29,10.29,0,0,1,525.678,1529.088Z" transform="translate(-517.189 -1503.977)" fill="#fff"/>
        <path id="Path_10100" data-name="Path 10100" d="M600.867,1544.766a8.564,8.564,0,0,1-4.421-1.143,8.3,8.3,0,0,1-3.07-3.119,9.627,9.627,0,0,1,0-9.034,8.326,8.326,0,0,1,3.07-3.119,9.05,9.05,0,0,1,8.811,0,8.342,8.342,0,0,1,3.071,3.119,9.631,9.631,0,0,1,0,9.034,8.314,8.314,0,0,1-3.071,3.119A8.508,8.508,0,0,1,600.867,1544.766Zm0-3.023a4.935,4.935,0,0,0,2.7-.756,5.236,5.236,0,0,0,1.865-2.057,6.047,6.047,0,0,0,.644-2.942,6.123,6.123,0,0,0-.644-2.975,5.139,5.139,0,0,0-1.865-2.043,5.284,5.284,0,0,0-5.417.018,5.187,5.187,0,0,0-1.881,2.057,7.041,7.041,0,0,0,0,5.886,5.187,5.187,0,0,0,1.881,2.057A5.01,5.01,0,0,0,600.867,1541.742Z" transform="translate(-572.508 -1519.649)" fill="#fff"/>
        <path id="Path_10101" data-name="Path 10101" d="M675.634,1544.766a7.734,7.734,0,0,1-4.2-1.159,8.272,8.272,0,0,1-2.926-3.151,9.81,9.81,0,0,1,0-8.937,8.291,8.291,0,0,1,2.926-3.153,7.759,7.759,0,0,1,4.2-1.159,9.08,9.08,0,0,1,4.1.921,6.649,6.649,0,0,1,2.813,2.49l-1.833,2.25a6.062,6.062,0,0,0-1.318-1.349,7.064,7.064,0,0,0-1.7-.967,4.75,4.75,0,0,0-1.736-.352,5.054,5.054,0,0,0-2.75.756,5.4,5.4,0,0,0-1.913,2.074,6.143,6.143,0,0,0-.707,2.957,5.855,5.855,0,0,0,.739,2.942,5.763,5.763,0,0,0,1.961,2.071,4.945,4.945,0,0,0,2.7.776,5.047,5.047,0,0,0,1.688-.293,5.937,5.937,0,0,0,1.592-.867,8.184,8.184,0,0,0,1.447-1.414l1.833,2.25a7.559,7.559,0,0,1-2.942,2.377A8.919,8.919,0,0,1,675.634,1544.766Z" transform="translate(-627.918 -1519.649)" fill="#fff"/>
        <path id="Path_10102" data-name="Path 10102" d="M738.725,1502.66a2.291,2.291,0,0,1-1.64-.548,2.28,2.28,0,0,1,.017-3.055,2.219,2.219,0,0,1,1.623-.58,2.3,2.3,0,0,1,1.64.546,2.028,2.028,0,0,1,.579,1.546,2.006,2.006,0,0,1-.595,1.508A2.233,2.233,0,0,1,738.725,1502.66Zm-1.607,20.609v-16.879h3.311v16.879Z" transform="translate(-678.824 -1498.478)" fill="#fff"/>
        <path id="Path_10103" data-name="Path 10103" d="M774.168,1544.766a6.666,6.666,0,0,1-3.809-1.159,8.288,8.288,0,0,1-2.75-3.151,9.665,9.665,0,0,1-1.029-4.5,9.5,9.5,0,0,1,1.046-4.518,8,8,0,0,1,2.829-3.1,7.352,7.352,0,0,1,4-1.128,7.14,7.14,0,0,1,2.412.39,6.026,6.026,0,0,1,1.913,1.076,6.117,6.117,0,0,1,1.35,1.591,5.007,5.007,0,0,1,.66,1.929l-.74-.255v-4.372H783.4v16.879h-3.344v-4.02l.771-.224a4.535,4.535,0,0,1-.789,1.688,6.3,6.3,0,0,1-1.509,1.462,8.22,8.22,0,0,1-2.025,1.029A7.013,7.013,0,0,1,774.168,1544.766Zm.868-3.055a4.846,4.846,0,0,0,2.669-.741,5.1,5.1,0,0,0,1.818-2.04,6.509,6.509,0,0,0,.659-2.974,6.327,6.327,0,0,0-.659-2.926,5.152,5.152,0,0,0-1.818-2.029,4.868,4.868,0,0,0-2.669-.738,4.73,4.73,0,0,0-2.619.738,5.182,5.182,0,0,0-1.8,2.029,6.321,6.321,0,0,0-.659,2.926,6.5,6.5,0,0,0,.659,2.974,5.127,5.127,0,0,0,1.8,2.04A4.709,4.709,0,0,0,775.036,1541.711Z" transform="translate(-700.988 -1519.649)" fill="#fff"/>
        <path id="Path_10104" data-name="Path 10104" d="M848.367,1526.06v-23.791h3.313v23.791Z" transform="translate(-761.263 -1501.272)" fill="#fff"/>
      </g>
      <g id="Group_10777" data-name="Group 10777" transform="translate(76.299 31.811)">
        <path id="Path_10105" data-name="Path 10105" d="M517.189,1630.343v-23.191h9.442a6.446,6.446,0,0,1,3.428.941,7.375,7.375,0,0,1,2.469,9.791,7.306,7.306,0,0,1-2.469,2.6,6.256,6.256,0,0,1-3.428.977h-5.864v8.881Zm3.578-12.322h5.8a2.759,2.759,0,0,0,1.623-.516,3.833,3.833,0,0,0,1.176-1.359,3.934,3.934,0,0,0,.448-1.871,3.829,3.829,0,0,0-.448-1.855,3.7,3.7,0,0,0-1.176-1.324,2.8,2.8,0,0,0-1.623-.5h-5.8Z" transform="translate(-517.189 -1605.551)" fill="#fff"/>
        <path id="Path_10106" data-name="Path 10106" d="M593.491,1605.244a2.3,2.3,0,0,1-1.64-.543,2.285,2.285,0,0,1,.017-3.057,2.232,2.232,0,0,1,1.623-.578,2.309,2.309,0,0,1,1.641.547,2.284,2.284,0,0,1-.016,3.057A2.233,2.233,0,0,1,593.491,1605.244Zm-1.606,20.615v-16.885H595.2v16.885Z" transform="translate(-571.788 -1601.066)" fill="#fff"/>
        <path id="Path_10107" data-name="Path 10107" d="M630.178,1654.428a11.861,11.861,0,0,1-3.584-.562,8.5,8.5,0,0,1-2.879-1.465l1.223-2.574a7.255,7.255,0,0,0,1.511.854,10.125,10.125,0,0,0,1.833.58,8.969,8.969,0,0,0,1.9.209,6.723,6.723,0,0,0,2.958-.58,3.963,3.963,0,0,0,1.8-1.7,5.828,5.828,0,0,0,.61-2.8v-3.246l.354.225a3.614,3.614,0,0,1-1.045,1.914,6.857,6.857,0,0,1-2.2,1.494,6.642,6.642,0,0,1-2.7.58,8.1,8.1,0,0,1-4.293-1.143,8.244,8.244,0,0,1-2.975-3.119,9.179,9.179,0,0,1-1.092-4.518,9.3,9.3,0,0,1,1.077-4.52,8.141,8.141,0,0,1,2.958-3.117,8,8,0,0,1,4.229-1.141,7.241,7.241,0,0,1,3.537.914,8.87,8.87,0,0,1,1.383.949,5.272,5.272,0,0,1,1,1.094,3.007,3.007,0,0,1,.482,1.094l-.708.256v-3.953h3.312V1646a10.02,10.02,0,0,1-.594,3.582,7.087,7.087,0,0,1-1.721,2.637,7.447,7.447,0,0,1-2.733,1.643A10.965,10.965,0,0,1,630.178,1654.428Zm.129-10.131a5.287,5.287,0,0,0,2.8-.738,5.054,5.054,0,0,0,1.9-2.027,6.767,6.767,0,0,0-.016-5.93,5.1,5.1,0,0,0-4.678-2.781,5.081,5.081,0,0,0-2.75.754,5.332,5.332,0,0,0-1.9,2.059,6.6,6.6,0,0,0,0,5.883,5.194,5.194,0,0,0,1.9,2.043A5.139,5.139,0,0,0,630.307,1644.3Z" transform="translate(-594.134 -1622.24)" fill="#fff"/>
        <path id="Path_10108" data-name="Path 10108" d="M709.839,1647.26a9.38,9.38,0,0,1-4.614-1.107,8.158,8.158,0,0,1-3.151-3.039,8.545,8.545,0,0,1-1.142-4.437,9.869,9.869,0,0,1,.643-3.635,8.734,8.734,0,0,1,1.785-2.846,7.884,7.884,0,0,1,2.733-1.863,8.942,8.942,0,0,1,3.456-.658,7.422,7.422,0,0,1,3.055.627,7.618,7.618,0,0,1,2.46,1.719,7.515,7.515,0,0,1,1.608,2.592,8.716,8.716,0,0,1,.53,3.26l-.032,1.416H703.376l-.74-2.637h11.672l-.482.545v-.77a3.735,3.735,0,0,0-.708-1.9,4.389,4.389,0,0,0-3.57-1.8,5.966,5.966,0,0,0-2.926.658,4.266,4.266,0,0,0-1.8,1.93,7.223,7.223,0,0,0-.611,3.137,6.108,6.108,0,0,0,.74,3.07,5.028,5.028,0,0,0,2.089,2.008,6.612,6.612,0,0,0,3.119.711,6.381,6.381,0,0,0,2.332-.42,8.2,8.2,0,0,0,2.332-1.512l1.672,2.35a7.6,7.6,0,0,1-1.882,1.35,11.764,11.764,0,0,1-2.346.916A9.144,9.144,0,0,1,709.839,1647.26Z" transform="translate(-652.605 -1622.151)" fill="#fff"/>
        <path id="Path_10109" data-name="Path 10109" d="M781.189,1647.354a8.568,8.568,0,0,1-4.422-1.143,8.328,8.328,0,0,1-3.069-3.119,9.629,9.629,0,0,1,0-9.037,8.337,8.337,0,0,1,3.069-3.117,9.077,9.077,0,0,1,8.811,0,8.342,8.342,0,0,1,3.071,3.117,9.637,9.637,0,0,1,0,9.037,8.333,8.333,0,0,1-3.071,3.119A8.5,8.5,0,0,1,781.189,1647.354Zm0-3.023a4.933,4.933,0,0,0,2.7-.756,5.222,5.222,0,0,0,1.864-2.059,7.105,7.105,0,0,0,0-5.914,5.114,5.114,0,0,0-1.864-2.043,5.293,5.293,0,0,0-5.419.016,5.224,5.224,0,0,0-1.881,2.059,7.063,7.063,0,0,0,0,5.883,5.2,5.2,0,0,0,1.881,2.059A5.018,5.018,0,0,0,781.189,1644.33Z" transform="translate(-705.403 -1622.24)" fill="#fff"/>
        <path id="Path_10110" data-name="Path 10110" d="M851.67,1647.033V1630.15h3.311v3.471l-.578.389a4.864,4.864,0,0,1,1.254-2.076,7.507,7.507,0,0,1,2.219-1.543,6.706,6.706,0,0,1,5.853.16,4.636,4.636,0,0,1,1.929,2.3,10.168,10.168,0,0,1,.644,3.889v10.293h-3.312v-10.066a6.367,6.367,0,0,0-.387-2.395,2.63,2.63,0,0,0-1.188-1.385,3.729,3.729,0,0,0-1.994-.367,5,5,0,0,0-1.769.3,4.325,4.325,0,0,0-1.4.854,4.067,4.067,0,0,0-.932,1.27,3.648,3.648,0,0,0-.338,1.559v10.229H851.67Z" transform="translate(-763.697 -1622.24)" fill="#fff"/>
      </g>
    </g>
  </g>
</svg>
