<svg xmlns="http://www.w3.org/2000/svg" width="80" height="80" viewBox="0 0 80 80"><g transform="translate(2470 1176)"><rect width="80" height="80" transform="translate(-2470 -1176)" fill="none"/><g transform="translate(-56 17)"><path d="M17.5,84A5.463,5.463,0,0,1,12,78.5V9.5A5.463,5.463,0,0,1,17.5,4h37A5.463,5.463,0,0,1,60,9.5v69A5.463,5.463,0,0,1,54.5,84Zm-2.4-8.6v3.1a2.581,2.581,0,0,0,2.4,2.4h37a2.581,2.581,0,0,0,2.4-2.4V75.4Zm0-3.1H56.9V15.7H15.1Zm0-59.7H56.9V9.5a2.294,2.294,0,0,0-.75-1.65A2.294,2.294,0,0,0,54.5,7.1h-37a2.294,2.294,0,0,0-1.65.75A2.294,2.294,0,0,0,15.1,9.5Zm0,0v0Zm0,62.8v0Z" transform="translate(-2410 -1197)" fill="#01d99b"/><path d="M24,24.75a5.544,5.544,0,0,1-4.125-1.65,5.673,5.673,0,0,1-1.625-4.15A5.56,5.56,0,0,1,24,13.2a5.56,5.56,0,0,1,5.75,5.75,5.673,5.673,0,0,1-1.625,4.15A5.544,5.544,0,0,1,24,24.75ZM10,37.25v-2.9a3.915,3.915,0,0,1,.75-2.375,5.225,5.225,0,0,1,2-1.625,34.116,34.116,0,0,1,5.75-1.975,22.745,22.745,0,0,1,11,0,32.669,32.669,0,0,1,5.7,1.975,5.151,5.151,0,0,1,2.05,1.625A3.915,3.915,0,0,1,38,34.35v2.9Zm1.55-1.55h24.9V34.35a2.574,2.574,0,0,0-.5-1.475,3.625,3.625,0,0,0-1.4-1.175,24.492,24.492,0,0,0-5.275-1.875A24.131,24.131,0,0,0,24,29.25a24.471,24.471,0,0,0-5.3.575A23.4,23.4,0,0,0,13.45,31.7a3.625,3.625,0,0,0-1.4,1.175,2.574,2.574,0,0,0-.5,1.475ZM24,23.2A4.154,4.154,0,0,0,27.025,22a4.027,4.027,0,0,0,1.225-3,4.278,4.278,0,0,0-7.275-3.025A4.11,4.11,0,0,0,19.75,19a4.027,4.027,0,0,0,1.225,3A4.154,4.154,0,0,0,24,23.2ZM24,20m0-2M24,35.7Z" transform="translate(-2398 -1178.2)" fill="#01d99b"/><path d="M24,12.7a6.059,6.059,0,0,1,6.25,6.25,6.181,6.181,0,0,1-1.769,4.5A6.051,6.051,0,0,1,24,25.25a6.051,6.051,0,0,1-4.481-1.8,6.181,6.181,0,0,1-1.769-4.5A6.059,6.059,0,0,1,24,12.7Zm0,11.55a5.021,5.021,0,0,0,3.769-1.5,5.148,5.148,0,0,0,1.481-3.8A5.061,5.061,0,0,0,24,13.7a5.061,5.061,0,0,0-5.25,5.25,5.148,5.148,0,0,0,1.481,3.8A5.021,5.021,0,0,0,24,24.25Zm0-10A4.684,4.684,0,0,1,28.75,19a4.528,4.528,0,0,1-1.375,3.357,4.912,4.912,0,0,1-6.75,0A4.528,4.528,0,0,1,19.25,19,4.684,4.684,0,0,1,24,14.25Zm0,8.45a3.641,3.641,0,0,0,2.675-1.057A3.516,3.516,0,0,0,27.75,19,3.684,3.684,0,0,0,24,15.25,3.684,3.684,0,0,0,20.25,19a3.516,3.516,0,0,0,1.075,2.643A3.641,3.641,0,0,0,24,22.7Zm0,4.5a24.026,24.026,0,0,1,5.617.689,33.321,33.321,0,0,1,5.787,2l.005,0a5.667,5.667,0,0,1,2.244,1.784,4.423,4.423,0,0,1,.846,2.67v3.4H9.5v-3.4a4.423,4.423,0,0,1,.846-2.67A5.742,5.742,0,0,1,12.534,29.9l.015-.007a34.776,34.776,0,0,1,5.834-2A24.026,24.026,0,0,1,24,27.2Zm10.993,3.6a32.317,32.317,0,0,0-5.61-1.944,22.245,22.245,0,0,0-10.766,0A33.769,33.769,0,0,0,12.959,30.8a4.752,4.752,0,0,0-1.806,1.466,3.4,3.4,0,0,0-.654,2.08v2.4h27v-2.4a3.4,3.4,0,0,0-.654-2.08A4.68,4.68,0,0,0,34.993,30.8ZM24,28.75a24.744,24.744,0,0,1,5.384.587,25.107,25.107,0,0,1,5.383,1.912l.007,0a4.134,4.134,0,0,1,1.588,1.338,3.075,3.075,0,0,1,.588,1.759V36.2H11.05V34.35a3.075,3.075,0,0,1,.588-1.759,4.134,4.134,0,0,1,1.588-1.338,24.018,24.018,0,0,1,5.366-1.916A25.086,25.086,0,0,1,24,28.75Zm10.33,3.4a24.1,24.1,0,0,0-5.164-1.836A23.743,23.743,0,0,0,24,29.75a24.085,24.085,0,0,0-5.192.563,23.011,23.011,0,0,0-5.138,1.836,3.144,3.144,0,0,0-1.209,1.01,2.07,2.07,0,0,0-.412,1.191v.85h23.9v-.85a2.07,2.07,0,0,0-.412-1.191A3.147,3.147,0,0,0,34.33,32.149Z" transform="translate(-2398 -1178.2)" fill="#01d99b"/></g></g></svg>